<?xml version="1.0" encoding="UTF-8" standalone="no"?>
<!DOCTYPE svg PUBLIC "-//W3C//DTD SVG 1.1//EN"
 "http://www.w3.org/Graphics/SVG/1.1/DTD/svg11.dtd">
<!-- Generated by graphviz version 2.43.0 (0)
 -->
<!-- Title: 03/src/main.cpp Pages: 1 -->
<svg width="361pt" height="196pt"
 viewBox="0.00 0.00 360.68 196.00" xmlns="http://www.w3.org/2000/svg" xmlns:xlink="http://www.w3.org/1999/xlink">
<g id="graph0" class="graph" transform="scale(1 1) rotate(0) translate(4 192)">
<title>03/src/main.cpp</title>
<polygon fill="white" stroke="transparent" points="-4,4 -4,-192 356.68,-192 356.68,4 -4,4"/>
<!-- Node1 -->
<g id="node1" class="node">
<title>Node1</title>
<g id="a_node1"><a xlink:title=" ">
<polygon fill="#bfbfbf" stroke="black" points="47.68,-168.5 47.68,-187.5 141.68,-187.5 141.68,-168.5 47.68,-168.5"/>
<text text-anchor="middle" x="94.68" y="-175.5" font-family="Helvetica,sans-Serif" font-size="10.00">03/src/main.cpp</text>
</a>
</g>
</g>
<!-- Node2 -->
<g id="node2" class="node">
<title>Node2</title>
<g id="a_node2"><a xlink:title=" ">
<polygon fill="white" stroke="#bfbfbf" points="16.68,-56.5 16.68,-75.5 76.68,-75.5 76.68,-56.5 16.68,-56.5"/>
<text text-anchor="middle" x="46.68" y="-63.5" font-family="Helvetica,sans-Serif" font-size="10.00">iostream</text>
</a>
</g>
</g>
<!-- Node1&#45;&gt;Node2 -->
<g id="edge1" class="edge">
<title>Node1&#45;&gt;Node2</title>
<path fill="none" stroke="midnightblue" d="M56.71,-168.41C37.27,-161.88 15.3,-150.72 3.68,-132 -7.2,-114.48 10.12,-94.78 25.92,-81.71"/>
<polygon fill="midnightblue" stroke="midnightblue" points="28.13,-84.42 33.88,-75.52 23.83,-78.89 28.13,-84.42"/>
</g>
<!-- Node3 -->
<g id="node3" class="node">
<title>Node3</title>
<g id="a_node3"><a xlink:title=" ">
<polygon fill="white" stroke="#bfbfbf" points="13.18,-112.5 13.18,-131.5 60.18,-131.5 60.18,-112.5 13.18,-112.5"/>
<text text-anchor="middle" x="36.68" y="-119.5" font-family="Helvetica,sans-Serif" font-size="10.00">vector</text>
</a>
</g>
</g>
<!-- Node1&#45;&gt;Node3 -->
<g id="edge2" class="edge">
<title>Node1&#45;&gt;Node3</title>
<path fill="none" stroke="midnightblue" d="M85.36,-168.32C76.79,-160.34 63.87,-148.31 53.49,-138.65"/>
<polygon fill="midnightblue" stroke="midnightblue" points="55.87,-136.09 46.17,-131.83 51.1,-141.21 55.87,-136.09"/>
</g>
<!-- Node4 -->
<g id="node4" class="node">
<title>Node4</title>
<g id="a_node4"><a xlink:title=" ">
<polygon fill="white" stroke="#bfbfbf" points="78.68,-112.5 78.68,-131.5 110.68,-131.5 110.68,-112.5 78.68,-112.5"/>
<text text-anchor="middle" x="94.68" y="-119.5" font-family="Helvetica,sans-Serif" font-size="10.00">list</text>
</a>
</g>
</g>
<!-- Node1&#45;&gt;Node4 -->
<g id="edge3" class="edge">
<title>Node1&#45;&gt;Node4</title>
<path fill="none" stroke="midnightblue" d="M94.68,-168.08C94.68,-161.01 94.68,-150.86 94.68,-141.99"/>
<polygon fill="midnightblue" stroke="midnightblue" points="98.18,-141.75 94.68,-131.75 91.18,-141.75 98.18,-141.75"/>
</g>
<!-- Node5 -->
<g id="node5" class="node">
<title>Node5</title>
<g id="a_node5"><a xlink:title=" ">
<polygon fill="white" stroke="#bfbfbf" points="128.68,-112.5 128.68,-131.5 172.68,-131.5 172.68,-112.5 128.68,-112.5"/>
<text text-anchor="middle" x="150.68" y="-119.5" font-family="Helvetica,sans-Serif" font-size="10.00">string</text>
</a>
</g>
</g>
<!-- Node1&#45;&gt;Node5 -->
<g id="edge4" class="edge">
<title>Node1&#45;&gt;Node5</title>
<path fill="none" stroke="midnightblue" d="M103.68,-168.32C111.87,-160.42 124.18,-148.55 134.15,-138.94"/>
<polygon fill="midnightblue" stroke="midnightblue" points="136.75,-141.29 141.52,-131.83 131.89,-136.26 136.75,-141.29"/>
</g>
<!-- Node6 -->
<g id="node6" class="node">
<title>Node6</title>
<g id="a_node6"><a xlink:href="print__ip_8h.html" target="_top" xlink:title=" ">
<polygon fill="white" stroke="black" points="190.68,-112.5 190.68,-131.5 252.68,-131.5 252.68,-112.5 190.68,-112.5"/>
<text text-anchor="middle" x="221.68" y="-119.5" font-family="Helvetica,sans-Serif" font-size="10.00">print_ip.h</text>
</a>
</g>
</g>
<!-- Node1&#45;&gt;Node6 -->
<g id="edge5" class="edge">
<title>Node1&#45;&gt;Node6</title>
<path fill="none" stroke="midnightblue" d="M114.8,-168.44C135.7,-159.56 168.61,-145.56 192.39,-135.45"/>
<polygon fill="midnightblue" stroke="midnightblue" points="193.82,-138.65 201.65,-131.52 191.08,-132.21 193.82,-138.65"/>
</g>
<!-- Node6&#45;&gt;Node2 -->
<g id="edge6" class="edge">
<title>Node6&#45;&gt;Node2</title>
<path fill="none" stroke="midnightblue" d="M193.95,-112.44C164.25,-103.28 116.96,-88.69 84.01,-78.52"/>
<polygon fill="midnightblue" stroke="midnightblue" points="84.87,-75.12 74.28,-75.52 82.8,-81.81 84.87,-75.12"/>
</g>
<!-- Node7 -->
<g id="node7" class="node">
<title>Node7</title>
<g id="a_node7"><a xlink:title=" ">
<polygon fill="white" stroke="#bfbfbf" points="99.18,-0.5 99.18,-19.5 168.18,-19.5 168.18,-0.5 99.18,-0.5"/>
<text text-anchor="middle" x="133.68" y="-7.5" font-family="Helvetica,sans-Serif" font-size="10.00">type_traits</text>
</a>
</g>
</g>
<!-- Node6&#45;&gt;Node7 -->
<g id="edge7" class="edge">
<title>Node6&#45;&gt;Node7</title>
<path fill="none" stroke="midnightblue" d="M201.66,-112.38C186.44,-104.86 166.06,-92.55 153.68,-76 143.52,-62.42 138.47,-43.62 135.98,-29.73"/>
<polygon fill="midnightblue" stroke="midnightblue" points="139.44,-29.21 134.5,-19.84 132.52,-30.25 139.44,-29.21"/>
</g>
<!-- Node8 -->
<g id="node8" class="node">
<title>Node8</title>
<g id="a_node8"><a xlink:href="traits_8h.html" target="_top" xlink:title=" ">
<polygon fill="white" stroke="black" points="162.18,-56.5 162.18,-75.5 213.18,-75.5 213.18,-56.5 162.18,-56.5"/>
<text text-anchor="middle" x="187.68" y="-63.5" font-family="Helvetica,sans-Serif" font-size="10.00">traits.h</text>
</a>
</g>
</g>
<!-- Node6&#45;&gt;Node8 -->
<g id="edge8" class="edge">
<title>Node6&#45;&gt;Node8</title>
<path fill="none" stroke="midnightblue" d="M216.06,-112.08C211.31,-104.53 204.36,-93.49 198.53,-84.23"/>
<polygon fill="midnightblue" stroke="midnightblue" points="201.48,-82.35 193.19,-75.75 195.55,-86.08 201.48,-82.35"/>
</g>
<!-- Node10 -->
<g id="node10" class="node">
<title>Node10</title>
<g id="a_node10"><a xlink:href="utils_8h.html" target="_top" xlink:title=" ">
<polygon fill="white" stroke="black" points="231.18,-56.5 231.18,-75.5 278.18,-75.5 278.18,-56.5 231.18,-56.5"/>
<text text-anchor="middle" x="254.68" y="-63.5" font-family="Helvetica,sans-Serif" font-size="10.00">utils.h</text>
</a>
</g>
</g>
<!-- Node6&#45;&gt;Node10 -->
<g id="edge11" class="edge">
<title>Node6&#45;&gt;Node10</title>
<path fill="none" stroke="midnightblue" d="M227.13,-112.08C231.69,-104.61 238.35,-93.72 243.97,-84.52"/>
<polygon fill="midnightblue" stroke="midnightblue" points="247.1,-86.11 249.33,-75.75 241.13,-82.46 247.1,-86.11"/>
</g>
<!-- Node11 -->
<g id="node11" class="node">
<title>Node11</title>
<g id="a_node11"><a xlink:title=" ">
<polygon fill="white" stroke="#bfbfbf" points="296.68,-56.5 296.68,-75.5 352.68,-75.5 352.68,-56.5 296.68,-56.5"/>
<text text-anchor="middle" x="324.68" y="-63.5" font-family="Helvetica,sans-Serif" font-size="10.00">assert.h</text>
</a>
</g>
</g>
<!-- Node6&#45;&gt;Node11 -->
<g id="edge12" class="edge">
<title>Node6&#45;&gt;Node11</title>
<path fill="none" stroke="midnightblue" d="M238.23,-112.32C254.67,-103.7 280.11,-90.36 299.15,-80.39"/>
<polygon fill="midnightblue" stroke="midnightblue" points="300.94,-83.4 308.17,-75.65 297.69,-77.2 300.94,-83.4"/>
</g>
<!-- Node8&#45;&gt;Node7 -->
<g id="edge10" class="edge">
<title>Node8&#45;&gt;Node7</title>
<path fill="none" stroke="midnightblue" d="M178.76,-56.08C170.9,-48.22 159.25,-36.57 149.76,-27.08"/>
<polygon fill="midnightblue" stroke="midnightblue" points="151.98,-24.35 142.43,-19.75 147.03,-29.3 151.98,-24.35"/>
</g>
<!-- Node9 -->
<g id="node9" class="node">
<title>Node9</title>
<g id="a_node9"><a xlink:title=" ">
<polygon fill="white" stroke="#bfbfbf" points="186.18,-0.5 186.18,-19.5 227.18,-19.5 227.18,-0.5 186.18,-0.5"/>
<text text-anchor="middle" x="206.68" y="-7.5" font-family="Helvetica,sans-Serif" font-size="10.00">tuple</text>
</a>
</g>
</g>
<!-- Node8&#45;&gt;Node9 -->
<g id="edge9" class="edge">
<title>Node8&#45;&gt;Node9</title>
<path fill="none" stroke="midnightblue" d="M190.82,-56.08C193.36,-48.85 197.03,-38.41 200.21,-29.4"/>
<polygon fill="midnightblue" stroke="midnightblue" points="203.58,-30.35 203.6,-19.75 196.98,-28.02 203.58,-30.35"/>
</g>
</g>
</svg>
