<?xml version="1.0" encoding="UTF-8" standalone="no"?>
<!DOCTYPE svg PUBLIC "-//W3C//DTD SVG 1.1//EN"
 "http://www.w3.org/Graphics/SVG/1.1/DTD/svg11.dtd">
<!-- Generated by graphviz version 2.43.0 (0)
 -->
<!-- Title: 03/src/print_ip.h Pages: 1 -->
<svg width="315pt" height="140pt"
 viewBox="0.00 0.00 315.00 140.00" xmlns="http://www.w3.org/2000/svg" xmlns:xlink="http://www.w3.org/1999/xlink">
<g id="graph0" class="graph" transform="scale(1 1) rotate(0) translate(4 136)">
<title>03/src/print_ip.h</title>
<polygon fill="white" stroke="transparent" points="-4,4 -4,-136 311,-136 311,4 -4,4"/>
<!-- Node1 -->
<g id="node1" class="node">
<title>Node1</title>
<g id="a_node1"><a xlink:title=" ">
<polygon fill="#bfbfbf" stroke="black" points="94.5,-112.5 94.5,-131.5 189.5,-131.5 189.5,-112.5 94.5,-112.5"/>
<text text-anchor="middle" x="142" y="-119.5" font-family="Helvetica,sans-Serif" font-size="10.00">03/src/print_ip.h</text>
</a>
</g>
</g>
<!-- Node2 -->
<g id="node2" class="node">
<title>Node2</title>
<g id="a_node2"><a xlink:title=" ">
<polygon fill="white" stroke="#bfbfbf" points="0,-56.5 0,-75.5 60,-75.5 60,-56.5 0,-56.5"/>
<text text-anchor="middle" x="30" y="-63.5" font-family="Helvetica,sans-Serif" font-size="10.00">iostream</text>
</a>
</g>
</g>
<!-- Node1&#45;&gt;Node2 -->
<g id="edge1" class="edge">
<title>Node1&#45;&gt;Node2</title>
<path fill="none" stroke="midnightblue" d="M124.01,-112.32C105.96,-103.62 77.95,-90.12 57.2,-80.11"/>
<polygon fill="midnightblue" stroke="midnightblue" points="58.48,-76.84 47.95,-75.65 55.44,-83.15 58.48,-76.84"/>
</g>
<!-- Node3 -->
<g id="node3" class="node">
<title>Node3</title>
<g id="a_node3"><a xlink:title=" ">
<polygon fill="white" stroke="#bfbfbf" points="53.5,-0.5 53.5,-19.5 122.5,-19.5 122.5,-0.5 53.5,-0.5"/>
<text text-anchor="middle" x="88" y="-7.5" font-family="Helvetica,sans-Serif" font-size="10.00">type_traits</text>
</a>
</g>
</g>
<!-- Node1&#45;&gt;Node3 -->
<g id="edge2" class="edge">
<title>Node1&#45;&gt;Node3</title>
<path fill="none" stroke="midnightblue" d="M133.96,-112.32C126.34,-103.69 115.04,-89.77 108,-76 100.44,-61.22 95.15,-43.06 91.92,-29.7"/>
<polygon fill="midnightblue" stroke="midnightblue" points="95.3,-28.77 89.68,-19.78 88.47,-30.31 95.3,-28.77"/>
</g>
<!-- Node4 -->
<g id="node4" class="node">
<title>Node4</title>
<g id="a_node4"><a xlink:href="traits_8h.html" target="_top" xlink:title=" ">
<polygon fill="white" stroke="black" points="116.5,-56.5 116.5,-75.5 167.5,-75.5 167.5,-56.5 116.5,-56.5"/>
<text text-anchor="middle" x="142" y="-63.5" font-family="Helvetica,sans-Serif" font-size="10.00">traits.h</text>
</a>
</g>
</g>
<!-- Node1&#45;&gt;Node4 -->
<g id="edge3" class="edge">
<title>Node1&#45;&gt;Node4</title>
<path fill="none" stroke="midnightblue" d="M142,-112.08C142,-105.01 142,-94.86 142,-85.99"/>
<polygon fill="midnightblue" stroke="midnightblue" points="145.5,-85.75 142,-75.75 138.5,-85.75 145.5,-85.75"/>
</g>
<!-- Node6 -->
<g id="node6" class="node">
<title>Node6</title>
<g id="a_node6"><a xlink:href="utils_8h.html" target="_top" xlink:title=" ">
<polygon fill="white" stroke="black" points="185.5,-56.5 185.5,-75.5 232.5,-75.5 232.5,-56.5 185.5,-56.5"/>
<text text-anchor="middle" x="209" y="-63.5" font-family="Helvetica,sans-Serif" font-size="10.00">utils.h</text>
</a>
</g>
</g>
<!-- Node1&#45;&gt;Node6 -->
<g id="edge6" class="edge">
<title>Node1&#45;&gt;Node6</title>
<path fill="none" stroke="midnightblue" d="M152.76,-112.32C162.77,-104.26 177.89,-92.08 189.93,-82.37"/>
<polygon fill="midnightblue" stroke="midnightblue" points="192.45,-84.83 198.04,-75.83 188.06,-79.38 192.45,-84.83"/>
</g>
<!-- Node7 -->
<g id="node7" class="node">
<title>Node7</title>
<g id="a_node7"><a xlink:title=" ">
<polygon fill="white" stroke="#bfbfbf" points="251,-56.5 251,-75.5 307,-75.5 307,-56.5 251,-56.5"/>
<text text-anchor="middle" x="279" y="-63.5" font-family="Helvetica,sans-Serif" font-size="10.00">assert.h</text>
</a>
</g>
</g>
<!-- Node1&#45;&gt;Node7 -->
<g id="edge7" class="edge">
<title>Node1&#45;&gt;Node7</title>
<path fill="none" stroke="midnightblue" d="M163.71,-112.44C186.35,-103.52 222.07,-89.44 247.75,-79.32"/>
<polygon fill="midnightblue" stroke="midnightblue" points="249.37,-82.44 257.39,-75.52 246.81,-75.93 249.37,-82.44"/>
</g>
<!-- Node4&#45;&gt;Node3 -->
<g id="edge5" class="edge">
<title>Node4&#45;&gt;Node3</title>
<path fill="none" stroke="midnightblue" d="M133.08,-56.08C125.22,-48.22 113.57,-36.57 104.08,-27.08"/>
<polygon fill="midnightblue" stroke="midnightblue" points="106.3,-24.35 96.75,-19.75 101.35,-29.3 106.3,-24.35"/>
</g>
<!-- Node5 -->
<g id="node5" class="node">
<title>Node5</title>
<g id="a_node5"><a xlink:title=" ">
<polygon fill="white" stroke="#bfbfbf" points="140.5,-0.5 140.5,-19.5 181.5,-19.5 181.5,-0.5 140.5,-0.5"/>
<text text-anchor="middle" x="161" y="-7.5" font-family="Helvetica,sans-Serif" font-size="10.00">tuple</text>
</a>
</g>
</g>
<!-- Node4&#45;&gt;Node5 -->
<g id="edge4" class="edge">
<title>Node4&#45;&gt;Node5</title>
<path fill="none" stroke="midnightblue" d="M145.14,-56.08C147.68,-48.85 151.36,-38.41 154.53,-29.4"/>
<polygon fill="midnightblue" stroke="midnightblue" points="157.9,-30.35 157.92,-19.75 151.3,-28.02 157.9,-30.35"/>
</g>
</g>
</svg>
